<?xml version="1.0" standalone="no"?><!DOCTYPE svg PUBLIC "-//W3C//DTD SVG 1.1//EN" "http://www.w3.org/Graphics/SVG/1.1/DTD/svg11.dtd" [<!ENTITY nbsp "&#160;">]><svg id="qr-code-svg" xmlns="http://www.w3.org/2000/svg" version="1.1" viewBox="0 0 256 256" xmlns:xlink="http://www.w3.org/1999/xlink" width="256" height="256"><defs><style type="text/css"><![CDATA[
html { tab-size: 4; line-height: 1.15; text-size-adjust: 100%; }
body { margin: 0px; font-family: system-ui, -apple-system, "Segoe UI", Roboto, Helvetica, Arial, sans-serif, "Apple Color Emoji", "Segoe UI Emoji"; }
hr { height: 0px; color: inherit; }
abbr[title] { text-decoration: underline dotted; }
b, strong { font-weight: bolder; }
code, kbd, pre, samp { font-family: ui-monospace, SFMono-Regular, Consolas, "Liberation Mono", Menlo, monospace; font-size: 1em; }
small { font-size: 80%; }
sub, sup { font-size: 75%; line-height: 0; position: relative; vertical-align: baseline; }
sub { bottom: -0.25em; }
sup { top: -0.5em; }
table { text-indent: 0px; border-color: inherit; }
button, input, optgroup, select, textarea { font-family: inherit; font-size: 100%; line-height: 1.15; margin: 0px; }
button, select { text-transform: none; }
[type="button"], [type="reset"], [type="submit"], button { appearance: button; }
legend { padding: 0px; }
progress { vertical-align: baseline; }
::-webkit-inner-spin-button, ::-webkit-outer-spin-button { height: auto; }
[type="search"] { appearance: textfield; outline-offset: -2px; }
::-webkit-search-decoration { appearance: none; }
::-webkit-file-upload-button { appearance: button; font: inherit; }
summary { display: list-item; }
blockquote, dd, dl, figure, h1, h2, h3, h4, h5, h6, hr, p, pre { margin: 0px; }
button { background-color: transparent; background-image: none; }
fieldset, ol, ul { margin: 0px; padding: 0px; }
ol, ul { list-style: none; }
html { font-family: ui-sans-serif, system-ui, -apple-system, BlinkMacSystemFont, "Segoe UI", Roboto, "Helvetica Neue", Arial, "Noto Sans", sans-serif, "Apple Color Emoji", "Segoe UI Emoji", "Segoe UI Symbol", "Noto Color Emoji"; line-height: 1.5; }
body { font-family: inherit; line-height: inherit; }
*, ::after, ::before{box-sizing: border-box; border: 0px solid;}

hr { border-top-width: 1px; }
img { border-style: solid; }
textarea { resize: vertical; }
input::placeholder, textarea::placeholder { opacity: 1; color: rgb(156, 163, 175); }
[role="button"], button { cursor: pointer; }
table { border-collapse: collapse; }
h1, h2, h3, h4, h5, h6 { font-size: inherit; font-weight: inherit; }
a { color: inherit; text-decoration: inherit; }
button, input, optgroup, select, textarea { padding: 0px; line-height: inherit; color: inherit; }
code, kbd, pre, samp { font-family: ui-monospace, SFMono-Regular, Menlo, Monaco, Consolas, "Liberation Mono", "Courier New", monospace; }
audio, canvas, embed, iframe, img, object, svg, video{display: block; vertical-align: middle;}

img, video { max-width: 100%; height: auto; }
[hidden] { display: none; }
*, ::after, ::before{--tw-border-opacity:1; border-color: rgba(229,231,235,var(--tw-border-opacity)); --tw-ring-offset-shadow:0 0 transparent; --tw-ring-shadow:0 0 transparent; --tw-shadow:0 0 transparent;}

.container { width: 100%; }
.static { position: static; }
.absolute { position: absolute; }
.relative { position: relative; }
.-top-8 { top: -2rem; }
.mx-auto { margin-left: auto; margin-right: auto; }
.mb-2 { margin-bottom: 0.5rem; }
.ml-4 { margin-left: 1rem; }
.block { display: block; }
.flex { display: flex; }
.hidden { display: none; }
.h-20 { height: 5rem; }
.h-14 { height: 3.5rem; }
.h-6 { height: 1.5rem; }
.h-full { height: 100%; }
.h-5 { height: 1.25rem; }
.h-60 { height: 15rem; }
.w-full { width: 100%; }
.w-20 { width: 5rem; }
.w-14 { width: 3.5rem; }
.w-6 { width: 1.5rem; }
.w-5 { width: 1.25rem; }
.w-60 { width: 15rem; }
.flex-grow { flex-grow: 1; }
.cursor-pointer { cursor: pointer; }
.flex-row { flex-direction: row; }
.flex-col { flex-direction: column; }
.items-center { align-items: center; }
.justify-center { justify-content: center; }
.justify-between { justify-content: space-between; }
.gap-28 { gap: 7rem; }
.gap-4 { gap: 1rem; }
.gap-2 { gap: 0.5rem; }
.space-y-16 > :not([hidden]) ~ :not([hidden]) { --tw-space-y-reverse:0; margin-top: calc(4rem * calc(1 - var(--tw-space-y-reverse))); margin-bottom: calc(4rem * var(--tw-space-y-reverse)); }
.space-y-6 > :not([hidden]) ~ :not([hidden]) { --tw-space-y-reverse:0; margin-top: calc(1.5rem * calc(1 - var(--tw-space-y-reverse))); margin-bottom: calc(1.5rem * var(--tw-space-y-reverse)); }
.rounded-full { border-radius: 9999px; }
.rounded-3xl { border-radius: 1.5rem; }
.rounded-l-full { border-top-left-radius: 9999px; border-bottom-left-radius: 9999px; }
.rounded-r-full { border-top-right-radius: 9999px; border-bottom-right-radius: 9999px; }
.border-2 { border-width: 2px; }
.border-b { border-bottom-width: 1px; }
.border-dashed { border-style: dashed; }
.border-gray-300 { --tw-border-opacity:1; border-color: rgba(209,213,219,var(--tw-border-opacity)); }
.border-gray-400 { --tw-border-opacity:1; border-color: rgba(156,163,175,var(--tw-border-opacity)); }
.bg-blue-100 { --tw-bg-opacity:1; background-color: rgba(219,234,254,var(--tw-bg-opacity)); }
.bg-gray-50 { --tw-bg-opacity:1; background-color: rgba(249,250,251,var(--tw-bg-opacity)); }
.bg-blue-900 { --tw-bg-opacity:1; background-color: rgba(30,58,138,var(--tw-bg-opacity)); }
.bg-transparent { background-color: transparent; }
.bg-blue-400 { --tw-bg-opacity:1; background-color: rgba(96,165,250,var(--tw-bg-opacity)); }
.bg-yellow-500 { --tw-bg-opacity:1; background-color: rgba(245,158,11,var(--tw-bg-opacity)); }
.bg-gray-100 { --tw-bg-opacity:1; background-color: rgba(243,244,246,var(--tw-bg-opacity)); }
.p-3 { padding: 0.75rem; }
.p-6 { padding: 1.5rem; }
.px-12 { padding-left: 3rem; padding-right: 3rem; }
.py-6 { padding-top: 1.5rem; padding-bottom: 1.5rem; }
.px-6 { padding-left: 1.5rem; padding-right: 1.5rem; }
.py-3 { padding-top: 0.75rem; padding-bottom: 0.75rem; }
.px-4 { padding-left: 1rem; padding-right: 1rem; }
.py-4 { padding-top: 1rem; padding-bottom: 1rem; }
.pt-3 { padding-top: 0.75rem; }
.pb-5 { padding-bottom: 1.25rem; }
.text-center { text-align: center; }
.text-3xl { font-size: 1.875rem; line-height: 2.25rem; }
.text-xl { font-size: 1.25rem; }
.text-lg, .text-xl { line-height: 1.75rem; }
.text-lg { font-size: 1.125rem; }
.text-sm { font-size: 0.875rem; line-height: 1.25rem; }
.font-bold { font-weight: 700; }
.leading-tight { line-height: 1.25; }
.text-blue-400 { --tw-text-opacity:1; color: rgba(96,165,250,var(--tw-text-opacity)); }
.text-gray-400 { --tw-text-opacity:1; color: rgba(156,163,175,var(--tw-text-opacity)); }
.text-white { --tw-text-opacity:1; color: rgba(255,255,255,var(--tw-text-opacity)); }
.text-blue-900 { --tw-text-opacity:1; color: rgba(30,58,138,var(--tw-text-opacity)); }
.text-gray-500 { --tw-text-opacity:1; color: rgba(107,114,128,var(--tw-text-opacity)); }
.text-gray-600 { --tw-text-opacity:1; color: rgba(75,85,99,var(--tw-text-opacity)); }
.placeholder-transparent::placeholder { color: transparent; }
.opacity-60 { opacity: 0.6; }
.shadow-sm { --tw-shadow:0 1px 2px 0 rgba(0,0,0,0.05); }
.shadow-lg, .shadow-sm { box-shadow: var(--tw-ring-offset-shadow,0 0 transparent),var(--tw-ring-shadow,0 0 transparent),var(--tw-shadow); }
.shadow-lg { --tw-shadow:0 10px 15px -3px rgba(0,0,0,0.1),0 4px 6px -2px rgba(0,0,0,0.05); }
.transition-all { transition-property: all; transition-timing-function: cubic-bezier(0.4, 0, 0.2, 1); transition-duration: 0.15s; }
#__next, body, html { height: 100vh; }
.hover\:bg-blue-700:hover { --tw-bg-opacity:1; background-color: rgba(29,78,216,var(--tw-bg-opacity)); }
.hover\:bg-blue-800:hover { --tw-bg-opacity:1; background-color: rgba(30,64,175,var(--tw-bg-opacity)); }
.hover\:bg-blue-200:hover { --tw-bg-opacity:1; background-color: rgba(191,219,254,var(--tw-bg-opacity)); }
.hover\:opacity-70:hover { opacity: 0.7; }
.peer:placeholder-shown ~ .peer-placeholder-shown\:top-2 { top: 0.5rem; }
.peer:placeholder-shown ~ .peer-placeholder-shown\:top-3 { top: 0.75rem; }
.peer:placeholder-shown ~ .peer-placeholder-shown\:px-4 { padding-left: 1rem; padding-right: 1rem; }
.peer:placeholder-shown ~ .peer-placeholder-shown\:text-xl { font-size: 1.25rem; line-height: 1.75rem; }
.peer:placeholder-shown ~ .peer-placeholder-shown\:text-3xl { font-size: 1.875rem; line-height: 2.25rem; }
]]></style></defs>
  <rect x="0" y="0" width="256" height="256" style="fill:#ffffff;shape-rendering:crispEdges;"></rect>
  <path x="0" y="0" style="fill:#000000;shape-rendering:crispEdges;" d="M31.03,31.03 V38.79 H38.79 V31.03 H31.03 Z M38.79,31.03 V38.79 H46.55 V31.03 H38.79 Z M46.55,31.03 V38.79 H54.30 V31.03 H46.55 Z M54.30,31.03 V38.79 H62.06 V31.03 H54.30 Z M62.06,31.03 V38.79 H69.82 V31.03 H62.06 Z M69.82,31.03 V38.79 H77.58 V31.03 H69.82 Z M77.58,31.03 V38.79 H85.33 V31.03 H77.58 Z M93.09,31.03 V38.79 H100.85 V31.03 H93.09 Z M116.36,31.03 V38.79 H124.12 V31.03 H116.36 Z M124.12,31.03 V38.79 H131.88 V31.03 H124.12 Z M139.64,31.03 V38.79 H147.39 V31.03 H139.64 Z M155.15,31.03 V38.79 H162.91 V31.03 H155.15 Z M170.67,31.03 V38.79 H178.42 V31.03 H170.67 Z M178.42,31.03 V38.79 H186.18 V31.03 H178.42 Z M186.18,31.03 V38.79 H193.94 V31.03 H186.18 Z M193.94,31.03 V38.79 H201.70 V31.03 H193.94 Z M201.70,31.03 V38.79 H209.45 V31.03 H201.70 Z M209.45,31.03 V38.79 H217.21 V31.03 H209.45 Z M217.21,31.03 V38.79 H224.97 V31.03 H217.21 Z M31.03,38.79 V46.55 H38.79 V38.79 H31.03 Z M77.58,38.79 V46.55 H85.33 V38.79 H77.58 Z M100.85,38.79 V46.55 H108.61 V38.79 H100.85 Z M131.88,38.79 V46.55 H139.64 V38.79 H131.88 Z M139.64,38.79 V46.55 H147.39 V38.79 H139.64 Z M155.15,38.79 V46.55 H162.91 V38.79 H155.15 Z M170.67,38.79 V46.55 H178.42 V38.79 H170.67 Z M217.21,38.79 V46.55 H224.97 V38.79 H217.21 Z M31.03,46.55 V54.30 H38.79 V46.55 H31.03 Z M46.55,46.55 V54.30 H54.30 V46.55 H46.55 Z M54.30,46.55 V54.30 H62.06 V46.55 H54.30 Z M62.06,46.55 V54.30 H69.82 V46.55 H62.06 Z M77.58,46.55 V54.30 H85.33 V46.55 H77.58 Z M93.09,46.55 V54.30 H100.85 V46.55 H93.09 Z M100.85,46.55 V54.30 H108.61 V46.55 H100.85 Z M124.12,46.55 V54.30 H131.88 V46.55 H124.12 Z M139.64,46.55 V54.30 H147.39 V46.55 H139.64 Z M147.39,46.55 V54.30 H155.15 V46.55 H147.39 Z M170.67,46.55 V54.30 H178.42 V46.55 H170.67 Z M186.18,46.55 V54.30 H193.94 V46.55 H186.18 Z M193.94,46.55 V54.30 H201.70 V46.55 H193.94 Z M201.70,46.55 V54.30 H209.45 V46.55 H201.70 Z M217.21,46.55 V54.30 H224.97 V46.55 H217.21 Z M31.03,54.30 V62.06 H38.79 V54.30 H31.03 Z M46.55,54.30 V62.06 H54.30 V54.30 H46.55 Z M54.30,54.30 V62.06 H62.06 V54.30 H54.30 Z M62.06,54.30 V62.06 H69.82 V54.30 H62.06 Z M77.58,54.30 V62.06 H85.33 V54.30 H77.58 Z M108.61,54.30 V62.06 H116.36 V54.30 H108.61 Z M116.36,54.30 V62.06 H124.12 V54.30 H116.36 Z M124.12,54.30 V62.06 H131.88 V54.30 H124.12 Z M131.88,54.30 V62.06 H139.64 V54.30 H131.88 Z M155.15,54.30 V62.06 H162.91 V54.30 H155.15 Z M170.67,54.30 V62.06 H178.42 V54.30 H170.67 Z M186.18,54.30 V62.06 H193.94 V54.30 H186.18 Z M193.94,54.30 V62.06 H201.70 V54.30 H193.94 Z M201.70,54.30 V62.06 H209.45 V54.30 H201.70 Z M217.21,54.30 V62.06 H224.97 V54.30 H217.21 Z M31.03,62.06 V69.82 H38.79 V62.06 H31.03 Z M46.55,62.06 V69.82 H54.30 V62.06 H46.55 Z M54.30,62.06 V69.82 H62.06 V62.06 H54.30 Z M62.06,62.06 V69.82 H69.82 V62.06 H62.06 Z M77.58,62.06 V69.82 H85.33 V62.06 H77.58 Z M116.36,62.06 V69.82 H124.12 V62.06 H116.36 Z M147.39,62.06 V69.82 H155.15 V62.06 H147.39 Z M155.15,62.06 V69.82 H162.91 V62.06 H155.15 Z M170.67,62.06 V69.82 H178.42 V62.06 H170.67 Z M186.18,62.06 V69.82 H193.94 V62.06 H186.18 Z M193.94,62.06 V69.82 H201.70 V62.06 H193.94 Z M201.70,62.06 V69.82 H209.45 V62.06 H201.70 Z M217.21,62.06 V69.82 H224.97 V62.06 H217.21 Z M31.03,69.82 V77.58 H38.79 V69.82 H31.03 Z M77.58,69.82 V77.58 H85.33 V69.82 H77.58 Z M100.85,69.82 V77.58 H108.61 V69.82 H100.85 Z M116.36,69.82 V77.58 H124.12 V69.82 H116.36 Z M139.64,69.82 V77.58 H147.39 V69.82 H139.64 Z M147.39,69.82 V77.58 H155.15 V69.82 H147.39 Z M155.15,69.82 V77.58 H162.91 V69.82 H155.15 Z M170.67,69.82 V77.58 H178.42 V69.82 H170.67 Z M217.21,69.82 V77.58 H224.97 V69.82 H217.21 Z M31.03,77.58 V85.33 H38.79 V77.58 H31.03 Z M38.79,77.58 V85.33 H46.55 V77.58 H38.79 Z M46.55,77.58 V85.33 H54.30 V77.58 H46.55 Z M54.30,77.58 V85.33 H62.06 V77.58 H54.30 Z M62.06,77.58 V85.33 H69.82 V77.58 H62.06 Z M69.82,77.58 V85.33 H77.58 V77.58 H69.82 Z M77.58,77.58 V85.33 H85.33 V77.58 H77.58 Z M93.09,77.58 V85.33 H100.85 V77.58 H93.09 Z M108.61,77.58 V85.33 H116.36 V77.58 H108.61 Z M124.12,77.58 V85.33 H131.88 V77.58 H124.12 Z M139.64,77.58 V85.33 H147.39 V77.58 H139.64 Z M155.15,77.58 V85.33 H162.91 V77.58 H155.15 Z M170.67,77.58 V85.33 H178.42 V77.58 H170.67 Z M178.42,77.58 V85.33 H186.18 V77.58 H178.42 Z M186.18,77.58 V85.33 H193.94 V77.58 H186.18 Z M193.94,77.58 V85.33 H201.70 V77.58 H193.94 Z M201.70,77.58 V85.33 H209.45 V77.58 H201.70 Z M209.45,77.58 V85.33 H217.21 V77.58 H209.45 Z M217.21,77.58 V85.33 H224.97 V77.58 H217.21 Z M93.09,85.33 V93.09 H100.85 V85.33 H93.09 Z M108.61,85.33 V93.09 H116.36 V85.33 H108.61 Z M139.64,85.33 V93.09 H147.39 V85.33 H139.64 Z M147.39,85.33 V93.09 H155.15 V85.33 H147.39 Z M31.03,93.09 V100.85 H38.79 V93.09 H31.03 Z M46.55,93.09 V100.85 H54.30 V93.09 H46.55 Z M69.82,93.09 V100.85 H77.58 V93.09 H69.82 Z M77.58,93.09 V100.85 H85.33 V93.09 H77.58 Z M100.85,93.09 V100.85 H108.61 V93.09 H100.85 Z M108.61,93.09 V100.85 H116.36 V93.09 H108.61 Z M116.36,93.09 V100.85 H124.12 V93.09 H116.36 Z M162.91,93.09 V100.85 H170.67 V93.09 H162.91 Z M170.67,93.09 V100.85 H178.42 V93.09 H170.67 Z M201.70,93.09 V100.85 H209.45 V93.09 H201.70 Z M217.21,93.09 V100.85 H224.97 V93.09 H217.21 Z M46.55,100.85 V108.61 H54.30 V100.85 H46.55 Z M62.06,100.85 V108.61 H69.82 V100.85 H62.06 Z M69.82,100.85 V108.61 H77.58 V100.85 H69.82 Z M116.36,100.85 V108.61 H124.12 V100.85 H116.36 Z M131.88,100.85 V108.61 H139.64 V100.85 H131.88 Z M162.91,100.85 V108.61 H170.67 V100.85 H162.91 Z M178.42,100.85 V108.61 H186.18 V100.85 H178.42 Z M193.94,100.85 V108.61 H201.70 V100.85 H193.94 Z M217.21,100.85 V108.61 H224.97 V100.85 H217.21 Z M54.30,108.61 V116.36 H62.06 V108.61 H54.30 Z M62.06,108.61 V116.36 H69.82 V108.61 H62.06 Z M69.82,108.61 V116.36 H77.58 V108.61 H69.82 Z M77.58,108.61 V116.36 H85.33 V108.61 H77.58 Z M85.33,108.61 V116.36 H93.09 V108.61 H85.33 Z M93.09,108.61 V116.36 H100.85 V108.61 H93.09 Z M116.36,108.61 V116.36 H124.12 V108.61 H116.36 Z M124.12,108.61 V116.36 H131.88 V108.61 H124.12 Z M131.88,108.61 V116.36 H139.64 V108.61 H131.88 Z M139.64,108.61 V116.36 H147.39 V108.61 H139.64 Z M147.39,108.61 V116.36 H155.15 V108.61 H147.39 Z M178.42,108.61 V116.36 H186.18 V108.61 H178.42 Z M186.18,108.61 V116.36 H193.94 V108.61 H186.18 Z M201.70,108.61 V116.36 H209.45 V108.61 H201.70 Z M209.45,108.61 V116.36 H217.21 V108.61 H209.45 Z M217.21,108.61 V116.36 H224.97 V108.61 H217.21 Z M46.55,116.36 V124.12 H54.30 V116.36 H46.55 Z M54.30,116.36 V124.12 H62.06 V116.36 H54.30 Z M62.06,116.36 V124.12 H69.82 V116.36 H62.06 Z M85.33,116.36 V124.12 H93.09 V116.36 H85.33 Z M108.61,116.36 V124.12 H116.36 V116.36 H108.61 Z M147.39,116.36 V124.12 H155.15 V116.36 H147.39 Z M170.67,116.36 V124.12 H178.42 V116.36 H170.67 Z M186.18,116.36 V124.12 H193.94 V116.36 H186.18 Z M209.45,116.36 V124.12 H217.21 V116.36 H209.45 Z M38.79,124.12 V131.88 H46.55 V124.12 H38.79 Z M62.06,124.12 V131.88 H69.82 V124.12 H62.06 Z M77.58,124.12 V131.88 H85.33 V124.12 H77.58 Z M85.33,124.12 V131.88 H93.09 V124.12 H85.33 Z M100.85,124.12 V131.88 H108.61 V124.12 H100.85 Z M116.36,124.12 V131.88 H124.12 V124.12 H116.36 Z M124.12,124.12 V131.88 H131.88 V124.12 H124.12 Z M131.88,124.12 V131.88 H139.64 V124.12 H131.88 Z M139.64,124.12 V131.88 H147.39 V124.12 H139.64 Z M147.39,124.12 V131.88 H155.15 V124.12 H147.39 Z M186.18,124.12 V131.88 H193.94 V124.12 H186.18 Z M193.94,124.12 V131.88 H201.70 V124.12 H193.94 Z M201.70,124.12 V131.88 H209.45 V124.12 H201.70 Z M209.45,124.12 V131.88 H217.21 V124.12 H209.45 Z M217.21,124.12 V131.88 H224.97 V124.12 H217.21 Z M31.03,131.88 V139.64 H38.79 V131.88 H31.03 Z M38.79,131.88 V139.64 H46.55 V131.88 H38.79 Z M46.55,131.88 V139.64 H54.30 V131.88 H46.55 Z M54.30,131.88 V139.64 H62.06 V131.88 H54.30 Z M108.61,131.88 V139.64 H116.36 V131.88 H108.61 Z M139.64,131.88 V139.64 H147.39 V131.88 H139.64 Z M162.91,131.88 V139.64 H170.67 V131.88 H162.91 Z M170.67,131.88 V139.64 H178.42 V131.88 H170.67 Z M193.94,131.88 V139.64 H201.70 V131.88 H193.94 Z M217.21,131.88 V139.64 H224.97 V131.88 H217.21 Z M31.03,139.64 V147.39 H38.79 V139.64 H31.03 Z M38.79,139.64 V147.39 H46.55 V139.64 H38.79 Z M54.30,139.64 V147.39 H62.06 V139.64 H54.30 Z M62.06,139.64 V147.39 H69.82 V139.64 H62.06 Z M77.58,139.64 V147.39 H85.33 V139.64 H77.58 Z M85.33,139.64 V147.39 H93.09 V139.64 H85.33 Z M100.85,139.64 V147.39 H108.61 V139.64 H100.85 Z M139.64,139.64 V147.39 H147.39 V139.64 H139.64 Z M147.39,139.64 V147.39 H155.15 V139.64 H147.39 Z M186.18,139.64 V147.39 H193.94 V139.64 H186.18 Z M209.45,139.64 V147.39 H217.21 V139.64 H209.45 Z M217.21,139.64 V147.39 H224.97 V139.64 H217.21 Z M46.55,147.39 V155.15 H54.30 V147.39 H46.55 Z M54.30,147.39 V155.15 H62.06 V147.39 H54.30 Z M93.09,147.39 V155.15 H100.85 V147.39 H93.09 Z M100.85,147.39 V155.15 H108.61 V147.39 H100.85 Z M108.61,147.39 V155.15 H116.36 V147.39 H108.61 Z M116.36,147.39 V155.15 H124.12 V147.39 H116.36 Z M131.88,147.39 V155.15 H139.64 V147.39 H131.88 Z M139.64,147.39 V155.15 H147.39 V147.39 H139.64 Z M155.15,147.39 V155.15 H162.91 V147.39 H155.15 Z M178.42,147.39 V155.15 H186.18 V147.39 H178.42 Z M186.18,147.39 V155.15 H193.94 V147.39 H186.18 Z M193.94,147.39 V155.15 H201.70 V147.39 H193.94 Z M38.79,155.15 V162.91 H46.55 V155.15 H38.79 Z M46.55,155.15 V162.91 H54.30 V155.15 H46.55 Z M77.58,155.15 V162.91 H85.33 V155.15 H77.58 Z M85.33,155.15 V162.91 H93.09 V155.15 H85.33 Z M93.09,155.15 V162.91 H100.85 V155.15 H93.09 Z M100.85,155.15 V162.91 H108.61 V155.15 H100.85 Z M108.61,155.15 V162.91 H116.36 V155.15 H108.61 Z M116.36,155.15 V162.91 H124.12 V155.15 H116.36 Z M124.12,155.15 V162.91 H131.88 V155.15 H124.12 Z M147.39,155.15 V162.91 H155.15 V155.15 H147.39 Z M155.15,155.15 V162.91 H162.91 V155.15 H155.15 Z M162.91,155.15 V162.91 H170.67 V155.15 H162.91 Z M170.67,155.15 V162.91 H178.42 V155.15 H170.67 Z M178.42,155.15 V162.91 H186.18 V155.15 H178.42 Z M186.18,155.15 V162.91 H193.94 V155.15 H186.18 Z M201.70,155.15 V162.91 H209.45 V155.15 H201.70 Z M209.45,155.15 V162.91 H217.21 V155.15 H209.45 Z M217.21,155.15 V162.91 H224.97 V155.15 H217.21 Z M100.85,162.91 V170.67 H108.61 V162.91 H100.85 Z M108.61,162.91 V170.67 H116.36 V162.91 H108.61 Z M116.36,162.91 V170.67 H124.12 V162.91 H116.36 Z M147.39,162.91 V170.67 H155.15 V162.91 H147.39 Z M155.15,162.91 V170.67 H162.91 V162.91 H155.15 Z M186.18,162.91 V170.67 H193.94 V162.91 H186.18 Z M193.94,162.91 V170.67 H201.70 V162.91 H193.94 Z M31.03,170.67 V178.42 H38.79 V170.67 H31.03 Z M38.79,170.67 V178.42 H46.55 V170.67 H38.79 Z M46.55,170.67 V178.42 H54.30 V170.67 H46.55 Z M54.30,170.67 V178.42 H62.06 V170.67 H54.30 Z M62.06,170.67 V178.42 H69.82 V170.67 H62.06 Z M69.82,170.67 V178.42 H77.58 V170.67 H69.82 Z M77.58,170.67 V178.42 H85.33 V170.67 H77.58 Z M100.85,170.67 V178.42 H108.61 V170.67 H100.85 Z M124.12,170.67 V178.42 H131.88 V170.67 H124.12 Z M131.88,170.67 V178.42 H139.64 V170.67 H131.88 Z M139.64,170.67 V178.42 H147.39 V170.67 H139.64 Z M155.15,170.67 V178.42 H162.91 V170.67 H155.15 Z M170.67,170.67 V178.42 H178.42 V170.67 H170.67 Z M186.18,170.67 V178.42 H193.94 V170.67 H186.18 Z M31.03,178.42 V186.18 H38.79 V178.42 H31.03 Z M77.58,178.42 V186.18 H85.33 V178.42 H77.58 Z M93.09,178.42 V186.18 H100.85 V178.42 H93.09 Z M100.85,178.42 V186.18 H108.61 V178.42 H100.85 Z M116.36,178.42 V186.18 H124.12 V178.42 H116.36 Z M124.12,178.42 V186.18 H131.88 V178.42 H124.12 Z M131.88,178.42 V186.18 H139.64 V178.42 H131.88 Z M147.39,178.42 V186.18 H155.15 V178.42 H147.39 Z M155.15,178.42 V186.18 H162.91 V178.42 H155.15 Z M186.18,178.42 V186.18 H193.94 V178.42 H186.18 Z M201.70,178.42 V186.18 H209.45 V178.42 H201.70 Z M209.45,178.42 V186.18 H217.21 V178.42 H209.45 Z M31.03,186.18 V193.94 H38.79 V186.18 H31.03 Z M46.55,186.18 V193.94 H54.30 V186.18 H46.55 Z M54.30,186.18 V193.94 H62.06 V186.18 H54.30 Z M62.06,186.18 V193.94 H69.82 V186.18 H62.06 Z M77.58,186.18 V193.94 H85.33 V186.18 H77.58 Z M108.61,186.18 V193.94 H116.36 V186.18 H108.61 Z M147.39,186.18 V193.94 H155.15 V186.18 H147.39 Z M155.15,186.18 V193.94 H162.91 V186.18 H155.15 Z M162.91,186.18 V193.94 H170.67 V186.18 H162.91 Z M170.67,186.18 V193.94 H178.42 V186.18 H170.67 Z M178.42,186.18 V193.94 H186.18 V186.18 H178.42 Z M186.18,186.18 V193.94 H193.94 V186.18 H186.18 Z M193.94,186.18 V193.94 H201.70 V186.18 H193.94 Z M201.70,186.18 V193.94 H209.45 V186.18 H201.70 Z M209.45,186.18 V193.94 H217.21 V186.18 H209.45 Z M31.03,193.94 V201.70 H38.79 V193.94 H31.03 Z M46.55,193.94 V201.70 H54.30 V193.94 H46.55 Z M54.30,193.94 V201.70 H62.06 V193.94 H54.30 Z M62.06,193.94 V201.70 H69.82 V193.94 H62.06 Z M77.58,193.94 V201.70 H85.33 V193.94 H77.58 Z M100.85,193.94 V201.70 H108.61 V193.94 H100.85 Z M108.61,193.94 V201.70 H116.36 V193.94 H108.61 Z M116.36,193.94 V201.70 H124.12 V193.94 H116.36 Z M139.64,193.94 V201.70 H147.39 V193.94 H139.64 Z M147.39,193.94 V201.70 H155.15 V193.94 H147.39 Z M201.70,193.94 V201.70 H209.45 V193.94 H201.70 Z M217.21,193.94 V201.70 H224.97 V193.94 H217.21 Z M31.03,201.70 V209.45 H38.79 V201.70 H31.03 Z M46.55,201.70 V209.45 H54.30 V201.70 H46.55 Z M54.30,201.70 V209.45 H62.06 V201.70 H54.30 Z M62.06,201.70 V209.45 H69.82 V201.70 H62.06 Z M77.58,201.70 V209.45 H85.33 V201.70 H77.58 Z M93.09,201.70 V209.45 H100.85 V201.70 H93.09 Z M108.61,201.70 V209.45 H116.36 V201.70 H108.61 Z M139.64,201.70 V209.45 H147.39 V201.70 H139.64 Z M193.94,201.70 V209.45 H201.70 V201.70 H193.94 Z M31.03,209.45 V217.21 H38.79 V209.45 H31.03 Z M77.58,209.45 V217.21 H85.33 V209.45 H77.58 Z M100.85,209.45 V217.21 H108.61 V209.45 H100.85 Z M131.88,209.45 V217.21 H139.64 V209.45 H131.88 Z M155.15,209.45 V217.21 H162.91 V209.45 H155.15 Z M178.42,209.45 V217.21 H186.18 V209.45 H178.42 Z M193.94,209.45 V217.21 H201.70 V209.45 H193.94 Z M201.70,209.45 V217.21 H209.45 V209.45 H201.70 Z M31.03,217.21 V224.97 H38.79 V217.21 H31.03 Z M38.79,217.21 V224.97 H46.55 V217.21 H38.79 Z M46.55,217.21 V224.97 H54.30 V217.21 H46.55 Z M54.30,217.21 V224.97 H62.06 V217.21 H54.30 Z M62.06,217.21 V224.97 H69.82 V217.21 H62.06 Z M69.82,217.21 V224.97 H77.58 V217.21 H69.82 Z M77.58,217.21 V224.97 H85.33 V217.21 H77.58 Z M93.09,217.21 V224.97 H100.85 V217.21 H93.09 Z M100.85,217.21 V224.97 H108.61 V217.21 H100.85 Z M108.61,217.21 V224.97 H116.36 V217.21 H108.61 Z M124.12,217.21 V224.97 H131.88 V217.21 H124.12 Z M131.88,217.21 V224.97 H139.64 V217.21 H131.88 Z M139.64,217.21 V224.97 H147.39 V217.21 H139.64 Z M162.91,217.21 V224.97 H170.67 V217.21 H162.91 Z M170.67,217.21 V224.97 H178.42 V217.21 H170.67 Z M178.42,217.21 V224.97 H186.18 V217.21 H178.42 Z M186.18,217.21 V224.97 H193.94 V217.21 H186.18 Z M201.70,217.21 V224.97 H209.45 V217.21 H201.70 Z M217.21,217.21 V224.97 H224.97 V217.21 H217.21 Z "></path></svg>